<svg width="123" height="20" viewBox="0 0 123 20" fill="none" xmlns="http://www.w3.org/2000/svg">
<path d="M31.4721 17.3382L28.4067 11.7891H27.5458V17.3382H23.9554V2.63848H29.9814C31.1432 2.63848 32.13 2.8409 32.9419 3.24574C33.7677 3.65057 34.3836 4.20896 34.7895 4.92091C35.1955 5.6189 35.3984 6.40065 35.3984 7.26616C35.3984 8.24335 35.1185 9.11584 34.5586 9.88363C34.0127 10.6514 33.2008 11.1959 32.123 11.5169L35.5244 17.3382H31.4721ZM27.5458 9.25544H29.7714C30.4293 9.25544 30.9192 9.0949 31.2412 8.77382C31.5771 8.45275 31.7451 7.99905 31.7451 7.41274C31.7451 6.85435 31.5771 6.41461 31.2412 6.09354C30.9192 5.77246 30.4293 5.61192 29.7714 5.61192H27.5458V9.25544Z" fill="black"/>
<path d="M36.9384 11.475C36.9384 10.2745 37.1624 9.22054 37.6103 8.31315C38.0722 7.40576 38.6951 6.70777 39.4789 6.21918C40.2628 5.73058 41.1377 5.48628 42.1035 5.48628C42.9293 5.48628 43.6502 5.6538 44.2661 5.98884C44.896 6.32387 45.3789 6.76361 45.7149 7.30804V5.6538H49.3052V17.3382H45.7149V15.6839C45.3649 16.2284 44.875 16.6681 44.2451 17.0031C43.6292 17.3382 42.9083 17.5057 42.0825 17.5057C41.1307 17.5057 40.2628 17.2614 39.4789 16.7728C38.6951 16.2702 38.0722 15.5653 37.6103 14.6579C37.1624 13.7365 36.9384 12.6756 36.9384 11.475ZM45.7149 11.496C45.7149 10.6026 45.4629 9.89759 44.959 9.38107C44.4691 8.86456 43.8672 8.60631 43.1533 8.60631C42.4394 8.60631 41.8305 8.86456 41.3266 9.38107C40.8367 9.88363 40.5918 10.5816 40.5918 11.475C40.5918 12.3685 40.8367 13.0804 41.3266 13.6109C41.8305 14.1274 42.4394 14.3857 43.1533 14.3857C43.8672 14.3857 44.4691 14.1274 44.959 13.6109C45.4629 13.0944 45.7149 12.3894 45.7149 11.496Z" fill="black"/>
<path d="M59.0415 5.52817C60.4132 5.52817 61.505 5.97488 62.3169 6.86831C63.1427 7.74778 63.5557 8.96228 63.5557 10.5118V17.3382H59.9863V10.9934C59.9863 10.2117 59.7833 9.60443 59.3774 9.17168C58.9715 8.73892 58.4256 8.52255 57.7397 8.52255C57.0538 8.52255 56.5079 8.73892 56.102 9.17168C55.696 9.60443 55.4931 10.2117 55.4931 10.9934V17.3382H51.9027V5.6538H55.4931V7.20334C55.857 6.68683 56.3469 6.282 56.9628 5.98884C57.5787 5.68172 58.2716 5.52817 59.0415 5.52817Z" fill="black"/>
<path d="M73.2104 17.3382L69.641 12.4383V17.3382H66.0506V1.84277H69.641V10.4071L73.1894 5.6538H77.6196L72.7484 11.5169L77.6616 17.3382H73.2104Z" fill="black"/>
<path d="M88.6251 2.63848V5.50723H82.6202V8.60631H87.1134V11.3913H82.6202V17.3382H79.0298V2.63848H88.6251Z" fill="black"/>
<path d="M89.7983 11.475C89.7983 10.2745 90.0222 9.22054 90.4702 8.31315C90.9321 7.40576 91.555 6.70777 92.3388 6.21918C93.1227 5.73058 93.9976 5.48628 94.9634 5.48628C95.7892 5.48628 96.5101 5.6538 97.126 5.98884C97.7559 6.32387 98.2388 6.76361 98.5747 7.30804V5.6538H102.165V17.3382H98.5747V15.6839C98.2248 16.2284 97.7349 16.6681 97.105 17.0031C96.4891 17.3382 95.7682 17.5057 94.9424 17.5057C93.9906 17.5057 93.1227 17.2614 92.3388 16.7728C91.555 16.2702 90.9321 15.5653 90.4702 14.6579C90.0222 13.7365 89.7983 12.6756 89.7983 11.475ZM98.5747 11.496C98.5747 10.6026 98.3228 9.89759 97.8189 9.38107C97.329 8.86456 96.7271 8.60631 96.0132 8.60631C95.2993 8.60631 94.6904 8.86456 94.1865 9.38107C93.6966 9.88363 93.4516 10.5816 93.4516 11.475C93.4516 12.3685 93.6966 13.0804 94.1865 13.6109C94.6904 14.1274 95.2993 14.3857 96.0132 14.3857C96.7271 14.3857 97.329 14.1274 97.8189 13.6109C98.3228 13.0944 98.5747 12.3894 98.5747 11.496Z" fill="black"/>
<path d="M109.529 17.5057C108.507 17.5057 107.597 17.3312 106.799 16.9822C106.001 16.6332 105.371 16.1586 104.91 15.5583C104.448 14.9441 104.189 14.26 104.133 13.5062H107.681C107.723 13.911 107.912 14.2391 108.248 14.4904C108.584 14.7416 108.997 14.8673 109.487 14.8673C109.935 14.8673 110.278 14.7835 110.516 14.616C110.768 14.4345 110.894 14.2042 110.894 13.925C110.894 13.59 110.719 13.3457 110.369 13.1921C110.019 13.0246 109.452 12.8431 108.668 12.6477C107.828 12.4522 107.128 12.2498 106.568 12.0404C106.008 11.8171 105.525 11.475 105.12 11.0144C104.714 10.5397 104.511 9.90457 104.511 9.10886C104.511 8.43879 104.693 7.83154 105.057 7.2871C105.434 6.72871 105.98 6.28897 106.694 5.9679C107.422 5.64682 108.283 5.48628 109.277 5.48628C110.747 5.48628 111.901 5.84924 112.741 6.57515C113.595 7.30106 114.085 8.26429 114.211 9.46483H110.894C110.838 9.06 110.656 8.73892 110.348 8.50161C110.054 8.26429 109.662 8.14563 109.172 8.14563C108.752 8.14563 108.43 8.22939 108.206 8.39691C107.982 8.55047 107.87 8.76684 107.87 9.04604C107.87 9.38107 108.045 9.63235 108.395 9.79987C108.759 9.96739 109.319 10.1349 110.075 10.3024C110.943 10.5258 111.649 10.7491 112.195 10.9725C112.741 11.1819 113.217 11.5309 113.623 12.0195C114.043 12.4941 114.26 13.1363 114.274 13.9459C114.274 14.63 114.078 15.2442 113.686 15.7886C113.308 16.3191 112.755 16.7379 112.027 17.045C111.313 17.3521 110.481 17.5057 109.529 17.5057Z" fill="black"/>
<path d="M123 14.3019V17.3382H121.174C119.872 17.3382 118.857 17.0241 118.129 16.3959C117.401 15.7537 117.037 14.7137 117.037 13.2759V8.62724H115.61V5.6538H117.037V2.806H120.628V5.6538H122.979V8.62724H120.628V13.3177C120.628 13.6667 120.712 13.918 120.88 14.0716C121.048 14.2251 121.328 14.3019 121.72 14.3019H123Z" fill="black"/>
<path d="M8.88341 10.0184L15.7139 16.7037C15.9366 16.9269 16.0614 17.2265 16.0614 17.5383C16.0614 17.8502 15.9366 18.1497 15.7139 18.3726L14.5737 19.4593C14.35 19.6815 14.0446 19.8066 13.7259 19.8066C13.4073 19.8066 13.1019 19.6815 12.8785 19.4593L8.03067 14.7241L3.19278 19.469C2.96508 19.687 2.65905 19.8091 2.34041 19.8091C2.02143 19.8091 1.71539 19.687 1.4877 19.469L0.347525 18.353C0.124801 18.1302 0 17.8306 0 17.5188C0 17.2069 0.124809 16.9074 0.347525 16.6842L7.17796 10.0184C7.64997 9.55963 8.41147 9.55963 8.88341 10.0184Z" fill="black"/>
<path d="M6.97719 0.347812L0.337804 7.02567C0.12131 7.24828 0 7.54748 0 7.85933C0 8.17086 0.121318 8.47006 0.337804 8.69266L1.44609 9.78792C1.66355 10.0099 1.96039 10.1348 2.27012 10.1348C2.57986 10.1348 2.8767 10.0099 3.09384 9.78792L7.80607 5.06791L12.5086 9.78792C12.7261 10.0099 13.0226 10.1348 13.3327 10.1348C13.6424 10.1348 13.9389 10.0099 14.1564 9.78792L15.2647 8.68294C15.4812 8.46032 15.6025 8.16112 15.6025 7.84961C15.6025 7.53809 15.4812 7.23887 15.2647 7.01594L8.62529 0.338093C8.16746 -0.116554 7.42982 -0.112026 6.97719 0.347812Z" fill="black"/>
</svg>
